<mxfile host="app.diagrams.net" modified="2023-04-17T08:25:11.377Z" agent="Mozilla/5.0 (Windows NT 10.0; Win64; x64) AppleWebKit/537.36 (KHTML, like Gecko) Chrome/112.0.0.0 Safari/537.36" etag="SV-gT2a3xD8sbG_LWq3Z" version="21.1.8" type="github">
  <diagram name="Page-1" id="ji-dvn0qjL40lko-ON4k">
    <mxGraphModel dx="4026" dy="2028" grid="1" gridSize="10" guides="1" tooltips="1" connect="1" arrows="1" fold="1" page="1" pageScale="1" pageWidth="850" pageHeight="1100" math="0" shadow="0">
      <root>
        <mxCell id="0" />
        <mxCell id="1" parent="0" />
        <mxCell id="TrwFLLRDorfKgAdVW_bD-268" value="Data Security &amp;amp; Governance&lt;br&gt;&lt;br&gt;&lt;br&gt;&lt;br&gt;&lt;br&gt;&lt;br&gt;" style="rounded=0;whiteSpace=wrap;html=1;" parent="1" vertex="1">
          <mxGeometry x="246" width="294" height="117" as="geometry" />
        </mxCell>
        <mxCell id="TrwFLLRDorfKgAdVW_bD-261" value="Enterprise Data Storage Layer&lt;br&gt;&lt;br&gt;&lt;br&gt;&lt;br&gt;&lt;br&gt;&lt;br&gt;&lt;br&gt;&lt;br&gt;&lt;br&gt;&lt;br&gt;&lt;br&gt;&lt;br&gt;&lt;br&gt;&lt;br&gt;&lt;br&gt;&lt;br&gt;&lt;br&gt;&lt;br&gt;&lt;br&gt;&lt;br&gt;&lt;br&gt;&lt;br&gt;&lt;br&gt;&lt;br&gt;&lt;br&gt;" style="rounded=0;whiteSpace=wrap;html=1;" parent="1" vertex="1">
          <mxGeometry x="-469.5" y="130" width="689.5" height="530" as="geometry" />
        </mxCell>
        <mxCell id="TrwFLLRDorfKgAdVW_bD-265" value="Upstream Systems&lt;br&gt;&lt;br&gt;&lt;br&gt;&lt;br&gt;&lt;br&gt;&lt;br&gt;&lt;br&gt;&lt;br&gt;&lt;br&gt;&lt;br&gt;&lt;br&gt;&lt;br&gt;&lt;br&gt;&lt;br&gt;&lt;br&gt;&lt;br&gt;&lt;br&gt;&lt;br&gt;&lt;br&gt;&lt;br&gt;&lt;br&gt;&lt;br&gt;&lt;br&gt;&lt;br&gt;&lt;br&gt;&lt;br&gt;&lt;br&gt;&lt;br&gt;&lt;br&gt;&lt;br&gt;&lt;br&gt;&lt;br&gt;&lt;br&gt;&lt;br&gt;&lt;br&gt;&lt;br&gt;&lt;br&gt;&lt;br&gt;&lt;br&gt;&lt;br&gt;&lt;br&gt;&lt;br&gt;&lt;br&gt;&lt;br&gt;&lt;br&gt;&lt;br&gt;&lt;br&gt;&lt;br&gt;&lt;br&gt;&lt;br&gt;&lt;br&gt;&lt;br&gt;&lt;br&gt;&lt;br&gt;&lt;br&gt;&lt;br&gt;&lt;br&gt;&lt;br&gt;&lt;br&gt;&lt;br&gt;&lt;br&gt;&lt;br&gt;&lt;br&gt;" style="rounded=0;whiteSpace=wrap;html=1;" parent="1" vertex="1">
          <mxGeometry x="-810" y="2" width="330" height="938" as="geometry" />
        </mxCell>
        <mxCell id="TrwFLLRDorfKgAdVW_bD-64" value="" style="edgeStyle=orthogonalEdgeStyle;rounded=0;orthogonalLoop=1;jettySize=auto;html=1;" parent="1" source="sN8kw6bikd-ZLt6cQEY8-3" target="TrwFLLRDorfKgAdVW_bD-6" edge="1">
          <mxGeometry relative="1" as="geometry" />
        </mxCell>
        <mxCell id="sN8kw6bikd-ZLt6cQEY8-3" value="&lt;font style=&quot;font-size: 8px;&quot;&gt;IAP Mainframe&lt;/font&gt;" style="rounded=1;whiteSpace=wrap;html=1;" parent="1" vertex="1">
          <mxGeometry x="-780" y="39" width="120" height="20" as="geometry" />
        </mxCell>
        <mxCell id="TrwFLLRDorfKgAdVW_bD-1" value="&lt;font style=&quot;font-size: 8px;&quot;&gt;WMX&lt;/font&gt;" style="rounded=1;whiteSpace=wrap;html=1;" parent="1" vertex="1">
          <mxGeometry x="-780" y="62" width="120" height="20" as="geometry" />
        </mxCell>
        <mxCell id="TrwFLLRDorfKgAdVW_bD-65" value="" style="edgeStyle=orthogonalEdgeStyle;rounded=0;orthogonalLoop=1;jettySize=auto;html=1;" parent="1" source="TrwFLLRDorfKgAdVW_bD-2" target="TrwFLLRDorfKgAdVW_bD-8" edge="1">
          <mxGeometry relative="1" as="geometry" />
        </mxCell>
        <mxCell id="TrwFLLRDorfKgAdVW_bD-2" value="&lt;font style=&quot;font-size: 8px;&quot;&gt;CREST&lt;/font&gt;" style="rounded=1;whiteSpace=wrap;html=1;" parent="1" vertex="1">
          <mxGeometry x="-780" y="85" width="120" height="20" as="geometry" />
        </mxCell>
        <mxCell id="TrwFLLRDorfKgAdVW_bD-3" value="&lt;font style=&quot;font-size: 8px;&quot;&gt;Eclipse&lt;/font&gt;" style="rounded=1;whiteSpace=wrap;html=1;" parent="1" vertex="1">
          <mxGeometry x="-780" y="108" width="120" height="20" as="geometry" />
        </mxCell>
        <mxCell id="TrwFLLRDorfKgAdVW_bD-4" value="&lt;font style=&quot;font-size: 8px;&quot;&gt;RDR&lt;/font&gt;" style="rounded=1;whiteSpace=wrap;html=1;" parent="1" vertex="1">
          <mxGeometry x="-780" y="131" width="120" height="20" as="geometry" />
        </mxCell>
        <mxCell id="TrwFLLRDorfKgAdVW_bD-5" value="&lt;font style=&quot;font-size: 8px;&quot;&gt;WESCO&lt;/font&gt;" style="rounded=1;whiteSpace=wrap;html=1;" parent="1" vertex="1">
          <mxGeometry x="-780" y="154" width="120" height="20" as="geometry" />
        </mxCell>
        <mxCell id="TrwFLLRDorfKgAdVW_bD-6" value="&lt;font style=&quot;font-size: 8px;&quot;&gt;WESCO&lt;/font&gt;" style="rounded=1;whiteSpace=wrap;html=1;" parent="1" vertex="1">
          <mxGeometry x="-780" y="177" width="120" height="20" as="geometry" />
        </mxCell>
        <mxCell id="TrwFLLRDorfKgAdVW_bD-7" value="&lt;font style=&quot;font-size: 8px;&quot;&gt;WESCO&lt;/font&gt;" style="rounded=1;whiteSpace=wrap;html=1;" parent="1" vertex="1">
          <mxGeometry x="-780" y="200" width="120" height="20" as="geometry" />
        </mxCell>
        <mxCell id="TrwFLLRDorfKgAdVW_bD-8" value="&lt;font style=&quot;font-size: 8px;&quot;&gt;WESCO&lt;/font&gt;" style="rounded=1;whiteSpace=wrap;html=1;" parent="1" vertex="1">
          <mxGeometry x="-780" y="223" width="120" height="20" as="geometry" />
        </mxCell>
        <mxCell id="TrwFLLRDorfKgAdVW_bD-9" value="&lt;font style=&quot;font-size: 8px;&quot;&gt;WESCO&lt;/font&gt;" style="rounded=1;whiteSpace=wrap;html=1;" parent="1" vertex="1">
          <mxGeometry x="-780" y="246" width="120" height="20" as="geometry" />
        </mxCell>
        <mxCell id="TrwFLLRDorfKgAdVW_bD-10" value="&lt;font style=&quot;font-size: 8px;&quot;&gt;WESCO&lt;/font&gt;" style="rounded=1;whiteSpace=wrap;html=1;" parent="1" vertex="1">
          <mxGeometry x="-780" y="269" width="120" height="20" as="geometry" />
        </mxCell>
        <mxCell id="TrwFLLRDorfKgAdVW_bD-11" value="&lt;font style=&quot;font-size: 8px;&quot;&gt;WESCO&lt;/font&gt;" style="rounded=1;whiteSpace=wrap;html=1;" parent="1" vertex="1">
          <mxGeometry x="-780" y="292" width="120" height="20" as="geometry" />
        </mxCell>
        <mxCell id="TrwFLLRDorfKgAdVW_bD-12" value="&lt;font style=&quot;font-size: 8px;&quot;&gt;WESCO&lt;/font&gt;" style="rounded=1;whiteSpace=wrap;html=1;" parent="1" vertex="1">
          <mxGeometry x="-780" y="315" width="120" height="20" as="geometry" />
        </mxCell>
        <mxCell id="TrwFLLRDorfKgAdVW_bD-13" value="&lt;font style=&quot;font-size: 8px;&quot;&gt;WESCO&lt;/font&gt;" style="rounded=1;whiteSpace=wrap;html=1;" parent="1" vertex="1">
          <mxGeometry x="-780" y="338" width="120" height="20" as="geometry" />
        </mxCell>
        <mxCell id="TrwFLLRDorfKgAdVW_bD-14" value="&lt;font style=&quot;font-size: 8px;&quot;&gt;WESCO&lt;/font&gt;" style="rounded=1;whiteSpace=wrap;html=1;" parent="1" vertex="1">
          <mxGeometry x="-780" y="361" width="120" height="20" as="geometry" />
        </mxCell>
        <mxCell id="TrwFLLRDorfKgAdVW_bD-15" value="&lt;font style=&quot;font-size: 8px;&quot;&gt;WESCO&lt;/font&gt;" style="rounded=1;whiteSpace=wrap;html=1;" parent="1" vertex="1">
          <mxGeometry x="-780" y="384" width="120" height="20" as="geometry" />
        </mxCell>
        <mxCell id="TrwFLLRDorfKgAdVW_bD-16" value="&lt;font style=&quot;font-size: 8px;&quot;&gt;WESCO&lt;/font&gt;" style="rounded=1;whiteSpace=wrap;html=1;" parent="1" vertex="1">
          <mxGeometry x="-780" y="407" width="120" height="20" as="geometry" />
        </mxCell>
        <mxCell id="TrwFLLRDorfKgAdVW_bD-17" value="&lt;font style=&quot;font-size: 8px;&quot;&gt;WESCO&lt;/font&gt;" style="rounded=1;whiteSpace=wrap;html=1;" parent="1" vertex="1">
          <mxGeometry x="-780" y="430" width="120" height="20" as="geometry" />
        </mxCell>
        <mxCell id="TrwFLLRDorfKgAdVW_bD-18" value="&lt;font style=&quot;font-size: 8px;&quot;&gt;WESCO&lt;/font&gt;" style="rounded=1;whiteSpace=wrap;html=1;" parent="1" vertex="1">
          <mxGeometry x="-780" y="453" width="120" height="20" as="geometry" />
        </mxCell>
        <mxCell id="TrwFLLRDorfKgAdVW_bD-19" value="&lt;font style=&quot;font-size: 8px;&quot;&gt;WESCO&lt;/font&gt;" style="rounded=1;whiteSpace=wrap;html=1;" parent="1" vertex="1">
          <mxGeometry x="-780" y="476" width="120" height="20" as="geometry" />
        </mxCell>
        <mxCell id="TrwFLLRDorfKgAdVW_bD-20" value="&lt;font style=&quot;font-size: 8px;&quot;&gt;WESCO&lt;/font&gt;" style="rounded=1;whiteSpace=wrap;html=1;" parent="1" vertex="1">
          <mxGeometry x="-780" y="499" width="120" height="20" as="geometry" />
        </mxCell>
        <mxCell id="TrwFLLRDorfKgAdVW_bD-21" value="&lt;font style=&quot;font-size: 8px;&quot;&gt;WESCO&lt;/font&gt;" style="rounded=1;whiteSpace=wrap;html=1;" parent="1" vertex="1">
          <mxGeometry x="-780" y="522" width="120" height="20" as="geometry" />
        </mxCell>
        <mxCell id="TrwFLLRDorfKgAdVW_bD-22" value="&lt;font style=&quot;font-size: 8px;&quot;&gt;WESCO&lt;/font&gt;" style="rounded=1;whiteSpace=wrap;html=1;" parent="1" vertex="1">
          <mxGeometry x="-780" y="545" width="120" height="20" as="geometry" />
        </mxCell>
        <mxCell id="TrwFLLRDorfKgAdVW_bD-23" value="&lt;font style=&quot;font-size: 8px;&quot;&gt;WESCO&lt;/font&gt;" style="rounded=1;whiteSpace=wrap;html=1;" parent="1" vertex="1">
          <mxGeometry x="-780" y="568" width="120" height="20" as="geometry" />
        </mxCell>
        <mxCell id="TrwFLLRDorfKgAdVW_bD-24" value="&lt;font style=&quot;font-size: 8px;&quot;&gt;WESCO&lt;/font&gt;" style="rounded=1;whiteSpace=wrap;html=1;" parent="1" vertex="1">
          <mxGeometry x="-780" y="591" width="120" height="20" as="geometry" />
        </mxCell>
        <mxCell id="TrwFLLRDorfKgAdVW_bD-25" value="&lt;font style=&quot;font-size: 8px;&quot;&gt;WESCO&lt;/font&gt;" style="rounded=1;whiteSpace=wrap;html=1;" parent="1" vertex="1">
          <mxGeometry x="-780" y="614" width="120" height="20" as="geometry" />
        </mxCell>
        <mxCell id="TrwFLLRDorfKgAdVW_bD-26" value="&lt;font style=&quot;font-size: 8px;&quot;&gt;WESCO&lt;/font&gt;" style="rounded=1;whiteSpace=wrap;html=1;" parent="1" vertex="1">
          <mxGeometry x="-780" y="637" width="120" height="20" as="geometry" />
        </mxCell>
        <mxCell id="TrwFLLRDorfKgAdVW_bD-27" value="&lt;font style=&quot;font-size: 8px;&quot;&gt;WESCO&lt;/font&gt;" style="rounded=1;whiteSpace=wrap;html=1;" parent="1" vertex="1">
          <mxGeometry x="-780" y="660" width="120" height="20" as="geometry" />
        </mxCell>
        <mxCell id="TrwFLLRDorfKgAdVW_bD-28" value="&lt;font style=&quot;font-size: 8px;&quot;&gt;WESCO&lt;/font&gt;" style="rounded=1;whiteSpace=wrap;html=1;" parent="1" vertex="1">
          <mxGeometry x="-780" y="683" width="120" height="20" as="geometry" />
        </mxCell>
        <mxCell id="TrwFLLRDorfKgAdVW_bD-29" value="&lt;font style=&quot;font-size: 8px;&quot;&gt;WESCO&lt;/font&gt;" style="rounded=1;whiteSpace=wrap;html=1;" parent="1" vertex="1">
          <mxGeometry x="-780" y="706" width="120" height="20" as="geometry" />
        </mxCell>
        <mxCell id="TrwFLLRDorfKgAdVW_bD-30" value="&lt;font style=&quot;font-size: 8px;&quot;&gt;WESCO&lt;/font&gt;" style="rounded=1;whiteSpace=wrap;html=1;" parent="1" vertex="1">
          <mxGeometry x="-780" y="729" width="120" height="20" as="geometry" />
        </mxCell>
        <mxCell id="TrwFLLRDorfKgAdVW_bD-31" value="&lt;font style=&quot;font-size: 8px;&quot;&gt;WESCO&lt;/font&gt;" style="rounded=1;whiteSpace=wrap;html=1;" parent="1" vertex="1">
          <mxGeometry x="-780" y="752" width="120" height="20" as="geometry" />
        </mxCell>
        <mxCell id="TrwFLLRDorfKgAdVW_bD-32" value="&lt;font style=&quot;font-size: 8px;&quot;&gt;WESNET Mainframe&lt;/font&gt;" style="rounded=1;whiteSpace=wrap;html=1;" parent="1" vertex="1">
          <mxGeometry x="-630" y="39" width="120" height="20" as="geometry" />
        </mxCell>
        <mxCell id="TrwFLLRDorfKgAdVW_bD-33" value="&lt;font style=&quot;font-size: 8px;&quot;&gt;WESCO&lt;/font&gt;" style="rounded=1;whiteSpace=wrap;html=1;" parent="1" vertex="1">
          <mxGeometry x="-630" y="62" width="120" height="20" as="geometry" />
        </mxCell>
        <mxCell id="TrwFLLRDorfKgAdVW_bD-34" value="&lt;font style=&quot;font-size: 8px;&quot;&gt;RUBICON&lt;/font&gt;" style="rounded=1;whiteSpace=wrap;html=1;" parent="1" vertex="1">
          <mxGeometry x="-630" y="85" width="120" height="20" as="geometry" />
        </mxCell>
        <mxCell id="TrwFLLRDorfKgAdVW_bD-35" value="&lt;font style=&quot;font-size: 8px;&quot;&gt;CSDB&lt;/font&gt;" style="rounded=1;whiteSpace=wrap;html=1;" parent="1" vertex="1">
          <mxGeometry x="-630" y="108" width="120" height="20" as="geometry" />
        </mxCell>
        <mxCell id="TrwFLLRDorfKgAdVW_bD-36" value="&lt;font style=&quot;font-size: 8px;&quot;&gt;KRONOS&lt;/font&gt;" style="rounded=1;whiteSpace=wrap;html=1;" parent="1" vertex="1">
          <mxGeometry x="-630" y="131" width="120" height="20" as="geometry" />
        </mxCell>
        <mxCell id="TrwFLLRDorfKgAdVW_bD-37" value="&lt;font style=&quot;font-size: 8px;&quot;&gt;WESCO&lt;/font&gt;" style="rounded=1;whiteSpace=wrap;html=1;" parent="1" vertex="1">
          <mxGeometry x="-630" y="154" width="120" height="20" as="geometry" />
        </mxCell>
        <mxCell id="TrwFLLRDorfKgAdVW_bD-38" value="&lt;font style=&quot;font-size: 8px;&quot;&gt;WESCO&lt;/font&gt;" style="rounded=1;whiteSpace=wrap;html=1;" parent="1" vertex="1">
          <mxGeometry x="-630" y="177" width="120" height="20" as="geometry" />
        </mxCell>
        <mxCell id="TrwFLLRDorfKgAdVW_bD-39" value="&lt;font style=&quot;font-size: 8px;&quot;&gt;WESCO&lt;/font&gt;" style="rounded=1;whiteSpace=wrap;html=1;" parent="1" vertex="1">
          <mxGeometry x="-630" y="200" width="120" height="20" as="geometry" />
        </mxCell>
        <mxCell id="TrwFLLRDorfKgAdVW_bD-40" value="&lt;font style=&quot;font-size: 8px;&quot;&gt;WESCO&lt;/font&gt;" style="rounded=1;whiteSpace=wrap;html=1;" parent="1" vertex="1">
          <mxGeometry x="-630" y="223" width="120" height="20" as="geometry" />
        </mxCell>
        <mxCell id="TrwFLLRDorfKgAdVW_bD-41" value="&lt;font style=&quot;font-size: 8px;&quot;&gt;WESCO&lt;/font&gt;" style="rounded=1;whiteSpace=wrap;html=1;" parent="1" vertex="1">
          <mxGeometry x="-630" y="246" width="120" height="20" as="geometry" />
        </mxCell>
        <mxCell id="TrwFLLRDorfKgAdVW_bD-42" value="&lt;font style=&quot;font-size: 8px;&quot;&gt;WESCO&lt;/font&gt;" style="rounded=1;whiteSpace=wrap;html=1;" parent="1" vertex="1">
          <mxGeometry x="-630" y="269" width="120" height="20" as="geometry" />
        </mxCell>
        <mxCell id="TrwFLLRDorfKgAdVW_bD-43" value="&lt;font style=&quot;font-size: 8px;&quot;&gt;WESCO&lt;/font&gt;" style="rounded=1;whiteSpace=wrap;html=1;" parent="1" vertex="1">
          <mxGeometry x="-630" y="292" width="120" height="20" as="geometry" />
        </mxCell>
        <mxCell id="TrwFLLRDorfKgAdVW_bD-44" value="&lt;font style=&quot;font-size: 8px;&quot;&gt;WESCO&lt;/font&gt;" style="rounded=1;whiteSpace=wrap;html=1;" parent="1" vertex="1">
          <mxGeometry x="-630" y="315" width="120" height="20" as="geometry" />
        </mxCell>
        <mxCell id="TrwFLLRDorfKgAdVW_bD-45" value="&lt;font style=&quot;font-size: 8px;&quot;&gt;WESCO&lt;/font&gt;" style="rounded=1;whiteSpace=wrap;html=1;" parent="1" vertex="1">
          <mxGeometry x="-630" y="338" width="120" height="20" as="geometry" />
        </mxCell>
        <mxCell id="TrwFLLRDorfKgAdVW_bD-46" value="&lt;font style=&quot;font-size: 8px;&quot;&gt;WESCO&lt;/font&gt;" style="rounded=1;whiteSpace=wrap;html=1;" parent="1" vertex="1">
          <mxGeometry x="-630" y="361" width="120" height="20" as="geometry" />
        </mxCell>
        <mxCell id="TrwFLLRDorfKgAdVW_bD-47" value="&lt;font style=&quot;font-size: 8px;&quot;&gt;WESCO&lt;/font&gt;" style="rounded=1;whiteSpace=wrap;html=1;" parent="1" vertex="1">
          <mxGeometry x="-630" y="384" width="120" height="20" as="geometry" />
        </mxCell>
        <mxCell id="TrwFLLRDorfKgAdVW_bD-48" value="&lt;font style=&quot;font-size: 8px;&quot;&gt;WESCO&lt;/font&gt;" style="rounded=1;whiteSpace=wrap;html=1;" parent="1" vertex="1">
          <mxGeometry x="-630" y="407" width="120" height="20" as="geometry" />
        </mxCell>
        <mxCell id="TrwFLLRDorfKgAdVW_bD-49" value="&lt;font style=&quot;font-size: 8px;&quot;&gt;WESCO&lt;/font&gt;" style="rounded=1;whiteSpace=wrap;html=1;" parent="1" vertex="1">
          <mxGeometry x="-630" y="430" width="120" height="20" as="geometry" />
        </mxCell>
        <mxCell id="TrwFLLRDorfKgAdVW_bD-50" value="&lt;font style=&quot;font-size: 8px;&quot;&gt;WESCO&lt;/font&gt;" style="rounded=1;whiteSpace=wrap;html=1;" parent="1" vertex="1">
          <mxGeometry x="-630" y="453" width="120" height="20" as="geometry" />
        </mxCell>
        <mxCell id="TrwFLLRDorfKgAdVW_bD-51" value="&lt;font style=&quot;font-size: 8px;&quot;&gt;WESCO&lt;/font&gt;" style="rounded=1;whiteSpace=wrap;html=1;" parent="1" vertex="1">
          <mxGeometry x="-630" y="476" width="120" height="20" as="geometry" />
        </mxCell>
        <mxCell id="TrwFLLRDorfKgAdVW_bD-52" value="&lt;font style=&quot;font-size: 8px;&quot;&gt;WESCO&lt;/font&gt;" style="rounded=1;whiteSpace=wrap;html=1;" parent="1" vertex="1">
          <mxGeometry x="-630" y="499" width="120" height="20" as="geometry" />
        </mxCell>
        <mxCell id="TrwFLLRDorfKgAdVW_bD-53" value="&lt;font style=&quot;font-size: 8px;&quot;&gt;WESCO&lt;/font&gt;" style="rounded=1;whiteSpace=wrap;html=1;" parent="1" vertex="1">
          <mxGeometry x="-630" y="522" width="120" height="20" as="geometry" />
        </mxCell>
        <mxCell id="TrwFLLRDorfKgAdVW_bD-54" value="&lt;font style=&quot;font-size: 8px;&quot;&gt;WESCO&lt;/font&gt;" style="rounded=1;whiteSpace=wrap;html=1;" parent="1" vertex="1">
          <mxGeometry x="-630" y="545" width="120" height="20" as="geometry" />
        </mxCell>
        <mxCell id="TrwFLLRDorfKgAdVW_bD-55" value="&lt;font style=&quot;font-size: 8px;&quot;&gt;WESCO&lt;/font&gt;" style="rounded=1;whiteSpace=wrap;html=1;" parent="1" vertex="1">
          <mxGeometry x="-630" y="568" width="120" height="20" as="geometry" />
        </mxCell>
        <mxCell id="TrwFLLRDorfKgAdVW_bD-56" value="&lt;font style=&quot;font-size: 8px;&quot;&gt;WESCO&lt;/font&gt;" style="rounded=1;whiteSpace=wrap;html=1;" parent="1" vertex="1">
          <mxGeometry x="-630" y="591" width="120" height="20" as="geometry" />
        </mxCell>
        <mxCell id="TrwFLLRDorfKgAdVW_bD-57" value="&lt;font style=&quot;font-size: 8px;&quot;&gt;WESCO&lt;/font&gt;" style="rounded=1;whiteSpace=wrap;html=1;" parent="1" vertex="1">
          <mxGeometry x="-630" y="614" width="120" height="20" as="geometry" />
        </mxCell>
        <mxCell id="TrwFLLRDorfKgAdVW_bD-58" value="&lt;font style=&quot;font-size: 8px;&quot;&gt;WESCO&lt;/font&gt;" style="rounded=1;whiteSpace=wrap;html=1;" parent="1" vertex="1">
          <mxGeometry x="-630" y="637" width="120" height="20" as="geometry" />
        </mxCell>
        <mxCell id="TrwFLLRDorfKgAdVW_bD-59" value="&lt;font style=&quot;font-size: 8px;&quot;&gt;WESCO&lt;/font&gt;" style="rounded=1;whiteSpace=wrap;html=1;" parent="1" vertex="1">
          <mxGeometry x="-630" y="660" width="120" height="20" as="geometry" />
        </mxCell>
        <mxCell id="TrwFLLRDorfKgAdVW_bD-60" value="&lt;font style=&quot;font-size: 8px;&quot;&gt;WESCO&lt;/font&gt;" style="rounded=1;whiteSpace=wrap;html=1;" parent="1" vertex="1">
          <mxGeometry x="-630" y="683" width="120" height="20" as="geometry" />
        </mxCell>
        <mxCell id="TrwFLLRDorfKgAdVW_bD-61" value="&lt;font style=&quot;font-size: 8px;&quot;&gt;WESCO&lt;/font&gt;" style="rounded=1;whiteSpace=wrap;html=1;" parent="1" vertex="1">
          <mxGeometry x="-630" y="706" width="120" height="20" as="geometry" />
        </mxCell>
        <mxCell id="TrwFLLRDorfKgAdVW_bD-62" value="&lt;font style=&quot;font-size: 8px;&quot;&gt;WESCO&lt;/font&gt;" style="rounded=1;whiteSpace=wrap;html=1;" parent="1" vertex="1">
          <mxGeometry x="-630" y="729" width="120" height="20" as="geometry" />
        </mxCell>
        <mxCell id="TrwFLLRDorfKgAdVW_bD-63" value="&lt;font style=&quot;font-size: 8px;&quot;&gt;WESCO&lt;/font&gt;" style="rounded=1;whiteSpace=wrap;html=1;" parent="1" vertex="1">
          <mxGeometry x="-630" y="752" width="120" height="20" as="geometry" />
        </mxCell>
        <mxCell id="TrwFLLRDorfKgAdVW_bD-201" value="&lt;font style=&quot;font-size: 8px;&quot;&gt;SRF Form&lt;/font&gt;" style="rounded=1;whiteSpace=wrap;html=1;" parent="1" vertex="1">
          <mxGeometry x="-630" y="789" width="120" height="20" as="geometry" />
        </mxCell>
        <mxCell id="TrwFLLRDorfKgAdVW_bD-202" value="&lt;font style=&quot;font-size: 8px;&quot;&gt;Intraquest&lt;/font&gt;" style="rounded=1;whiteSpace=wrap;html=1;" parent="1" vertex="1">
          <mxGeometry x="-630" y="812" width="120" height="20" as="geometry" />
        </mxCell>
        <mxCell id="TrwFLLRDorfKgAdVW_bD-203" value="&lt;font style=&quot;font-size: 8px;&quot;&gt;Cycle Count&lt;/font&gt;" style="rounded=1;whiteSpace=wrap;html=1;" parent="1" vertex="1">
          <mxGeometry x="-630" y="835" width="120" height="20" as="geometry" />
        </mxCell>
        <mxCell id="TrwFLLRDorfKgAdVW_bD-257" value="" style="group" parent="1" vertex="1" connectable="0">
          <mxGeometry x="-340" y="480" width="430" height="96" as="geometry" />
        </mxCell>
        <mxCell id="TrwFLLRDorfKgAdVW_bD-258" value="Target Enterprise Data Platform Data Storage Layer&lt;br&gt;&lt;br&gt;&lt;br&gt;&lt;br&gt;" style="rounded=0;whiteSpace=wrap;html=1;" parent="TrwFLLRDorfKgAdVW_bD-257" vertex="1">
          <mxGeometry width="430" height="96" as="geometry" />
        </mxCell>
        <mxCell id="TrwFLLRDorfKgAdVW_bD-259" value="IAP Reporting" style="shape=cylinder3;whiteSpace=wrap;html=1;boundedLbl=1;backgroundOutline=1;size=15;" parent="TrwFLLRDorfKgAdVW_bD-257" vertex="1">
          <mxGeometry x="120" y="34" width="90" height="55" as="geometry" />
        </mxCell>
        <mxCell id="TrwFLLRDorfKgAdVW_bD-260" value="IAP DWH" style="shape=cylinder3;whiteSpace=wrap;html=1;boundedLbl=1;backgroundOutline=1;size=15;" parent="TrwFLLRDorfKgAdVW_bD-257" vertex="1">
          <mxGeometry x="10" y="34" width="100" height="55" as="geometry" />
        </mxCell>
        <mxCell id="TrwFLLRDorfKgAdVW_bD-252" value="" style="group" parent="1" vertex="1" connectable="0">
          <mxGeometry x="-340" y="220" width="430" height="96" as="geometry" />
        </mxCell>
        <mxCell id="TrwFLLRDorfKgAdVW_bD-238" value="Anixter Data-Storage Layer&lt;br&gt;&lt;br&gt;&lt;br&gt;&lt;br&gt;&lt;br&gt;" style="rounded=0;whiteSpace=wrap;html=1;" parent="TrwFLLRDorfKgAdVW_bD-252" vertex="1">
          <mxGeometry width="430" height="96" as="geometry" />
        </mxCell>
        <mxCell id="TrwFLLRDorfKgAdVW_bD-230" value="IAP Reporting" style="shape=cylinder3;whiteSpace=wrap;html=1;boundedLbl=1;backgroundOutline=1;size=15;" parent="TrwFLLRDorfKgAdVW_bD-252" vertex="1">
          <mxGeometry x="120" y="34" width="90" height="55" as="geometry" />
        </mxCell>
        <mxCell id="TrwFLLRDorfKgAdVW_bD-232" value="IAP DWH" style="shape=cylinder3;whiteSpace=wrap;html=1;boundedLbl=1;backgroundOutline=1;size=15;" parent="TrwFLLRDorfKgAdVW_bD-252" vertex="1">
          <mxGeometry x="10" y="34" width="100" height="55" as="geometry" />
        </mxCell>
        <mxCell id="LwUS36X5Wv06FeCUHuJ4-23" value="" style="group" vertex="1" connectable="0" parent="1">
          <mxGeometry x="-350" y="250" width="430" height="96" as="geometry" />
        </mxCell>
        <mxCell id="TrwFLLRDorfKgAdVW_bD-254" value="Anixter Data-Storage Layer&lt;br&gt;&lt;br&gt;&lt;br&gt;" style="rounded=0;whiteSpace=wrap;html=1;" parent="LwUS36X5Wv06FeCUHuJ4-23" vertex="1">
          <mxGeometry width="430" height="96" as="geometry" />
        </mxCell>
        <mxCell id="TrwFLLRDorfKgAdVW_bD-255" value="IAP Reporting" style="shape=cylinder3;whiteSpace=wrap;html=1;boundedLbl=1;backgroundOutline=1;size=15;" parent="LwUS36X5Wv06FeCUHuJ4-23" vertex="1">
          <mxGeometry x="120" y="34" width="90" height="55" as="geometry" />
        </mxCell>
        <mxCell id="TrwFLLRDorfKgAdVW_bD-256" value="IAP DWH" style="shape=cylinder3;whiteSpace=wrap;html=1;boundedLbl=1;backgroundOutline=1;size=15;" parent="LwUS36X5Wv06FeCUHuJ4-23" vertex="1">
          <mxGeometry x="10" y="34" width="100" height="55" as="geometry" />
        </mxCell>
        <mxCell id="LwUS36X5Wv06FeCUHuJ4-60" value="" style="group" vertex="1" connectable="0" parent="1">
          <mxGeometry x="-470" y="670" width="690" height="269" as="geometry" />
        </mxCell>
        <mxCell id="LwUS36X5Wv06FeCUHuJ4-59" value="Enterprise Data Platform Downstream Systems&lt;br&gt;&lt;br&gt;&lt;br&gt;&lt;br&gt;&lt;br&gt;&lt;br&gt;&lt;br&gt;&lt;br&gt;&lt;br&gt;&lt;br&gt;&lt;br&gt;&lt;br&gt;&lt;br&gt;&lt;br&gt;" style="rounded=0;whiteSpace=wrap;html=1;" vertex="1" parent="LwUS36X5Wv06FeCUHuJ4-60">
          <mxGeometry y="20" width="690" height="249" as="geometry" />
        </mxCell>
        <mxCell id="LwUS36X5Wv06FeCUHuJ4-44" value="" style="group" vertex="1" connectable="0" parent="LwUS36X5Wv06FeCUHuJ4-60">
          <mxGeometry x="23.793103448275865" y="69" width="309.3103448275862" height="170" as="geometry" />
        </mxCell>
        <mxCell id="LwUS36X5Wv06FeCUHuJ4-43" value="Anixter DWH Downstream Systems&lt;br&gt;&lt;br&gt;&lt;br&gt;&lt;br&gt;&lt;br&gt;&lt;br&gt;&lt;br&gt;&lt;br&gt;&lt;br&gt;&lt;br&gt;" style="rounded=0;whiteSpace=wrap;html=1;" vertex="1" parent="LwUS36X5Wv06FeCUHuJ4-44">
          <mxGeometry width="309.3103448275862" height="170" as="geometry" />
        </mxCell>
        <mxCell id="TrwFLLRDorfKgAdVW_bD-196" value="&lt;font style=&quot;font-size: 8px;&quot;&gt;Blue Yonder&lt;/font&gt;" style="rounded=1;whiteSpace=wrap;html=1;" parent="LwUS36X5Wv06FeCUHuJ4-44" vertex="1">
          <mxGeometry x="11.896551724137932" y="30" width="142.75862068965517" height="20" as="geometry" />
        </mxCell>
        <mxCell id="TrwFLLRDorfKgAdVW_bD-197" value="&lt;font style=&quot;font-size: 8px;&quot;&gt;IAP Web&lt;/font&gt;" style="rounded=1;whiteSpace=wrap;html=1;" parent="LwUS36X5Wv06FeCUHuJ4-44" vertex="1">
          <mxGeometry x="157.0344827586207" y="30" width="142.75862068965517" height="20" as="geometry" />
        </mxCell>
        <mxCell id="TrwFLLRDorfKgAdVW_bD-198" value="&lt;font style=&quot;font-size: 8px;&quot;&gt;MS-Access&lt;/font&gt;" style="rounded=1;whiteSpace=wrap;html=1;" parent="LwUS36X5Wv06FeCUHuJ4-44" vertex="1">
          <mxGeometry x="11.896551724137932" y="52" width="142.75862068965517" height="20" as="geometry" />
        </mxCell>
        <mxCell id="TrwFLLRDorfKgAdVW_bD-199" value="&lt;font style=&quot;font-size: 8px;&quot;&gt;PROS&lt;/font&gt;" style="rounded=1;whiteSpace=wrap;html=1;" parent="LwUS36X5Wv06FeCUHuJ4-44" vertex="1">
          <mxGeometry x="11.896551724137932" y="74" width="142.75862068965517" height="20" as="geometry" />
        </mxCell>
        <mxCell id="TrwFLLRDorfKgAdVW_bD-200" value="&lt;font style=&quot;font-size: 8px;&quot;&gt;Extranet&lt;/font&gt;" style="rounded=1;whiteSpace=wrap;html=1;" parent="LwUS36X5Wv06FeCUHuJ4-44" vertex="1">
          <mxGeometry x="157.0344827586207" y="52" width="142.75862068965517" height="20" as="geometry" />
        </mxCell>
        <object label="&lt;font style=&quot;font-size: 8px;&quot;&gt;IRIS Reports&lt;/font&gt;" Info="IRIS Reports is very important for Warehouse Management. These are used by internal warehouse management team as well as some reports directly goto customers. The files for IRIS reports are built in SSRS. The stored procedures are used to built the data and then the SSRS is used to create the reports as well as it is used to send it. The reports are triggered through Control-EM jobs. A total of 2423 reports are present in SSRS." id="TrwFLLRDorfKgAdVW_bD-204">
          <mxCell style="rounded=1;whiteSpace=wrap;html=1;" parent="LwUS36X5Wv06FeCUHuJ4-44" vertex="1">
            <mxGeometry x="11.896551724137932" y="97" width="142.75862068965517" height="20" as="geometry" />
          </mxCell>
        </object>
        <mxCell id="TrwFLLRDorfKgAdVW_bD-205" value="&lt;font style=&quot;font-size: 8px;&quot;&gt;CORE Reports&lt;/font&gt;" style="rounded=1;whiteSpace=wrap;html=1;" parent="LwUS36X5Wv06FeCUHuJ4-44" vertex="1">
          <mxGeometry x="157.0344827586207" y="97" width="142.75862068965517" height="20" as="geometry" />
        </mxCell>
        <mxCell id="TrwFLLRDorfKgAdVW_bD-206" value="&lt;font style=&quot;font-size: 8px;&quot;&gt;WESCO&lt;/font&gt;" style="rounded=1;whiteSpace=wrap;html=1;" parent="LwUS36X5Wv06FeCUHuJ4-44" vertex="1">
          <mxGeometry x="11.896551724137932" y="120" width="142.75862068965517" height="20" as="geometry" />
        </mxCell>
        <mxCell id="TrwFLLRDorfKgAdVW_bD-207" value="&lt;font style=&quot;font-size: 8px;&quot;&gt;WESCO&lt;/font&gt;" style="rounded=1;whiteSpace=wrap;html=1;" parent="LwUS36X5Wv06FeCUHuJ4-44" vertex="1">
          <mxGeometry x="157.0344827586207" y="120" width="142.75862068965517" height="20" as="geometry" />
        </mxCell>
        <mxCell id="TrwFLLRDorfKgAdVW_bD-208" value="&lt;font style=&quot;font-size: 8px;&quot;&gt;WESCO&lt;/font&gt;" style="rounded=1;whiteSpace=wrap;html=1;" parent="LwUS36X5Wv06FeCUHuJ4-44" vertex="1">
          <mxGeometry x="11.896551724137932" y="143" width="142.75862068965517" height="20" as="geometry" />
        </mxCell>
        <mxCell id="TrwFLLRDorfKgAdVW_bD-209" value="&lt;font style=&quot;font-size: 8px;&quot;&gt;WESCO&lt;/font&gt;" style="rounded=1;whiteSpace=wrap;html=1;" parent="LwUS36X5Wv06FeCUHuJ4-44" vertex="1">
          <mxGeometry x="157.0344827586207" y="143" width="142.75862068965517" height="20" as="geometry" />
        </mxCell>
        <mxCell id="TrwFLLRDorfKgAdVW_bD-234" value="&lt;font style=&quot;font-size: 8px;&quot;&gt;Blue Yonder&lt;/font&gt;" style="rounded=1;whiteSpace=wrap;html=1;" parent="LwUS36X5Wv06FeCUHuJ4-44" vertex="1">
          <mxGeometry x="157.0344827586207" y="74" width="142.75862068965517" height="20" as="geometry" />
        </mxCell>
        <mxCell id="LwUS36X5Wv06FeCUHuJ4-45" value="" style="group" vertex="1" connectable="0" parent="LwUS36X5Wv06FeCUHuJ4-60">
          <mxGeometry x="356.89655172413796" y="69" width="309.3103448275862" height="170" as="geometry" />
        </mxCell>
        <mxCell id="LwUS36X5Wv06FeCUHuJ4-46" value="Wesco DWH Downstream Systems&lt;br&gt;&lt;br&gt;&lt;br&gt;&lt;br&gt;&lt;br&gt;&lt;br&gt;&lt;br&gt;&lt;br&gt;&lt;br&gt;&lt;br&gt;" style="rounded=0;whiteSpace=wrap;html=1;" vertex="1" parent="LwUS36X5Wv06FeCUHuJ4-45">
          <mxGeometry width="309.3103448275862" height="170" as="geometry" />
        </mxCell>
        <mxCell id="LwUS36X5Wv06FeCUHuJ4-47" value="&lt;font style=&quot;font-size: 8px;&quot;&gt;Blue Yonder&lt;/font&gt;" style="rounded=1;whiteSpace=wrap;html=1;" vertex="1" parent="LwUS36X5Wv06FeCUHuJ4-45">
          <mxGeometry x="11.896551724137932" y="30" width="142.75862068965517" height="20" as="geometry" />
        </mxCell>
        <mxCell id="LwUS36X5Wv06FeCUHuJ4-48" value="&lt;font style=&quot;font-size: 8px;&quot;&gt;IAP Web&lt;/font&gt;" style="rounded=1;whiteSpace=wrap;html=1;" vertex="1" parent="LwUS36X5Wv06FeCUHuJ4-45">
          <mxGeometry x="157.0344827586207" y="30" width="142.75862068965517" height="20" as="geometry" />
        </mxCell>
        <mxCell id="LwUS36X5Wv06FeCUHuJ4-49" value="&lt;font style=&quot;font-size: 8px;&quot;&gt;MS-Access&lt;/font&gt;" style="rounded=1;whiteSpace=wrap;html=1;" vertex="1" parent="LwUS36X5Wv06FeCUHuJ4-45">
          <mxGeometry x="11.896551724137932" y="52" width="142.75862068965517" height="20" as="geometry" />
        </mxCell>
        <mxCell id="LwUS36X5Wv06FeCUHuJ4-50" value="&lt;font style=&quot;font-size: 8px;&quot;&gt;PROS&lt;/font&gt;" style="rounded=1;whiteSpace=wrap;html=1;" vertex="1" parent="LwUS36X5Wv06FeCUHuJ4-45">
          <mxGeometry x="11.896551724137932" y="74" width="142.75862068965517" height="20" as="geometry" />
        </mxCell>
        <mxCell id="LwUS36X5Wv06FeCUHuJ4-51" value="&lt;font style=&quot;font-size: 8px;&quot;&gt;Extranet&lt;/font&gt;" style="rounded=1;whiteSpace=wrap;html=1;" vertex="1" parent="LwUS36X5Wv06FeCUHuJ4-45">
          <mxGeometry x="157.0344827586207" y="52" width="142.75862068965517" height="20" as="geometry" />
        </mxCell>
        <object label="&lt;font style=&quot;font-size: 8px;&quot;&gt;IRIS Reports&lt;/font&gt;" Info="IRIS Reports is very important for Warehouse Management. These are used by internal warehouse management team as well as some reports directly goto customers. The files for IRIS reports are built in SSRS. The stored procedures are used to built the data and then the SSRS is used to create the reports as well as it is used to send it. The reports are triggered through Control-EM jobs. A total of 2423 reports are present in SSRS." id="LwUS36X5Wv06FeCUHuJ4-52">
          <mxCell style="rounded=1;whiteSpace=wrap;html=1;" vertex="1" parent="LwUS36X5Wv06FeCUHuJ4-45">
            <mxGeometry x="11.896551724137932" y="97" width="142.75862068965517" height="20" as="geometry" />
          </mxCell>
        </object>
        <mxCell id="LwUS36X5Wv06FeCUHuJ4-53" value="&lt;font style=&quot;font-size: 8px;&quot;&gt;CORE Reports&lt;/font&gt;" style="rounded=1;whiteSpace=wrap;html=1;" vertex="1" parent="LwUS36X5Wv06FeCUHuJ4-45">
          <mxGeometry x="157.0344827586207" y="97" width="142.75862068965517" height="20" as="geometry" />
        </mxCell>
        <mxCell id="LwUS36X5Wv06FeCUHuJ4-54" value="&lt;font style=&quot;font-size: 8px;&quot;&gt;WESCO&lt;/font&gt;" style="rounded=1;whiteSpace=wrap;html=1;" vertex="1" parent="LwUS36X5Wv06FeCUHuJ4-45">
          <mxGeometry x="11.896551724137932" y="120" width="142.75862068965517" height="20" as="geometry" />
        </mxCell>
        <mxCell id="LwUS36X5Wv06FeCUHuJ4-55" value="&lt;font style=&quot;font-size: 8px;&quot;&gt;WESCO&lt;/font&gt;" style="rounded=1;whiteSpace=wrap;html=1;" vertex="1" parent="LwUS36X5Wv06FeCUHuJ4-45">
          <mxGeometry x="157.0344827586207" y="120" width="142.75862068965517" height="20" as="geometry" />
        </mxCell>
        <mxCell id="LwUS36X5Wv06FeCUHuJ4-56" value="&lt;font style=&quot;font-size: 8px;&quot;&gt;WESCO&lt;/font&gt;" style="rounded=1;whiteSpace=wrap;html=1;" vertex="1" parent="LwUS36X5Wv06FeCUHuJ4-45">
          <mxGeometry x="11.896551724137932" y="143" width="142.75862068965517" height="20" as="geometry" />
        </mxCell>
        <mxCell id="LwUS36X5Wv06FeCUHuJ4-57" value="&lt;font style=&quot;font-size: 8px;&quot;&gt;WESCO&lt;/font&gt;" style="rounded=1;whiteSpace=wrap;html=1;" vertex="1" parent="LwUS36X5Wv06FeCUHuJ4-45">
          <mxGeometry x="157.0344827586207" y="143" width="142.75862068965517" height="20" as="geometry" />
        </mxCell>
        <mxCell id="LwUS36X5Wv06FeCUHuJ4-58" value="&lt;font style=&quot;font-size: 8px;&quot;&gt;Blue Yonder&lt;/font&gt;" style="rounded=1;whiteSpace=wrap;html=1;" vertex="1" parent="LwUS36X5Wv06FeCUHuJ4-45">
          <mxGeometry x="157.0344827586207" y="74" width="142.75862068965517" height="20" as="geometry" />
        </mxCell>
        <mxCell id="TrwFLLRDorfKgAdVW_bD-262" value="Enterprise Data Reporting Layer&lt;br&gt;&lt;br&gt;&lt;br&gt;&lt;br&gt;&lt;br&gt;&lt;br&gt;&lt;br&gt;&lt;br&gt;&lt;br&gt;&lt;br&gt;&lt;br&gt;&lt;br&gt;&lt;br&gt;&lt;br&gt;&lt;br&gt;&lt;br&gt;&lt;br&gt;&lt;br&gt;&lt;br&gt;&lt;br&gt;&lt;br&gt;&lt;br&gt;&lt;br&gt;&lt;br&gt;&lt;br&gt;&lt;br&gt;&lt;br&gt;&lt;br&gt;&lt;br&gt;&lt;br&gt;&lt;br&gt;&lt;br&gt;&lt;br&gt;&lt;br&gt;&lt;br&gt;&lt;br&gt;&lt;br&gt;&lt;br&gt;&lt;br&gt;&lt;br&gt;" style="rounded=0;whiteSpace=wrap;html=1;container=0;" parent="1" vertex="1">
          <mxGeometry x="245" y="130" width="300" height="810" as="geometry" />
        </mxCell>
        <mxCell id="LwUS36X5Wv06FeCUHuJ4-4" value="CORE Reports,&lt;br&gt;IRIS Reports&lt;br&gt;Inventory Reports&lt;br&gt;Greenline Reports&lt;br&gt;Customer Reports" style="rounded=1;whiteSpace=wrap;html=1;container=0;" vertex="1" parent="1">
          <mxGeometry x="640" y="388.81164383561645" width="120" height="98.32191780821918" as="geometry" />
        </mxCell>
        <mxCell id="LwUS36X5Wv06FeCUHuJ4-14" style="edgeStyle=orthogonalEdgeStyle;rounded=0;orthogonalLoop=1;jettySize=auto;html=1;exitX=1;exitY=0.5;exitDx=0;exitDy=0;" edge="1" parent="1" source="LwUS36X5Wv06FeCUHuJ4-3">
          <mxGeometry relative="1" as="geometry">
            <mxPoint x="645" y="214.513698630137" as="sourcePoint" />
            <mxPoint x="605" y="369.44520547945206" as="targetPoint" />
          </mxGeometry>
        </mxCell>
        <mxCell id="LwUS36X5Wv06FeCUHuJ4-26" value="Text" style="edgeLabel;html=1;align=center;verticalAlign=middle;resizable=0;points=[];container=0;" vertex="1" connectable="0" parent="LwUS36X5Wv06FeCUHuJ4-14">
          <mxGeometry x="-0.3889" y="2" relative="1" as="geometry">
            <mxPoint as="offset" />
          </mxGeometry>
        </mxCell>
        <mxCell id="LwUS36X5Wv06FeCUHuJ4-24" value="Sales Analysis&lt;br&gt;Querying System" style="rounded=1;whiteSpace=wrap;html=1;container=0;" vertex="1" parent="1">
          <mxGeometry x="335" y="620.2157534246576" width="120" height="38.732876712328775" as="geometry" />
        </mxCell>
        <mxCell id="LwUS36X5Wv06FeCUHuJ4-11" value="Wesco Reporting Layer&lt;br&gt;&lt;br&gt;&lt;br&gt;&lt;br&gt;&lt;br&gt;&lt;br&gt;&lt;br&gt;&lt;br&gt;&lt;br&gt;&lt;br&gt;&lt;br&gt;&lt;br&gt;&lt;br&gt;&lt;br&gt;&lt;br&gt;&lt;br&gt;&lt;br&gt;" style="rounded=0;whiteSpace=wrap;html=1;container=0;" vertex="1" parent="1">
          <mxGeometry x="280" y="474.72" width="230" height="285.28" as="geometry" />
        </mxCell>
        <mxCell id="LwUS36X5Wv06FeCUHuJ4-6" value="Oracle OBIEE" style="rounded=1;whiteSpace=wrap;html=1;container=0;" vertex="1" parent="1">
          <mxGeometry x="335" y="571.054794520548" width="120" height="38.732876712328775" as="geometry" />
        </mxCell>
        <mxCell id="LwUS36X5Wv06FeCUHuJ4-7" value="Wesco Power Bi" style="rounded=1;whiteSpace=wrap;html=1;container=0;" vertex="1" parent="1">
          <mxGeometry x="335" y="613.7602739726028" width="120" height="38.732876712328775" as="geometry" />
        </mxCell>
        <mxCell id="LwUS36X5Wv06FeCUHuJ4-9" value="Tibco Webfocus" style="rounded=1;whiteSpace=wrap;html=1;container=0;" vertex="1" parent="1">
          <mxGeometry x="335" y="528.3493150684932" width="120" height="38.732876712328775" as="geometry" />
        </mxCell>
        <mxCell id="LwUS36X5Wv06FeCUHuJ4-22" value="Point Of Sale &lt;br&gt;Home Grown Reporting System" style="rounded=1;whiteSpace=wrap;html=1;container=0;" vertex="1" parent="1">
          <mxGeometry x="335" y="655.472602739726" width="120" height="51.64383561643836" as="geometry" />
        </mxCell>
        <mxCell id="LwUS36X5Wv06FeCUHuJ4-8" value="Sales Analysis&lt;br&gt;Querying System" style="rounded=1;whiteSpace=wrap;html=1;container=0;" vertex="1" parent="1">
          <mxGeometry x="335" y="711.5856164383562" width="120" height="38.732876712328775" as="geometry" />
        </mxCell>
        <mxCell id="LwUS36X5Wv06FeCUHuJ4-3" value="Anixter Reporting Layer&lt;br&gt;&lt;br&gt;&lt;br&gt;&lt;br&gt;&lt;br&gt;&lt;br&gt;&lt;br&gt;&lt;br&gt;&lt;br&gt;" style="rounded=0;whiteSpace=wrap;html=1;container=0;" vertex="1" parent="1">
          <mxGeometry x="280" y="277.0821917808219" width="230" height="184.72602739726025" as="geometry" />
        </mxCell>
        <mxCell id="LwUS36X5Wv06FeCUHuJ4-1" value="Anixter Power BI" style="rounded=1;whiteSpace=wrap;html=1;container=0;" vertex="1" parent="1">
          <mxGeometry x="335" y="364.9760273972603" width="120" height="38.73287671232877" as="geometry" />
        </mxCell>
        <mxCell id="LwUS36X5Wv06FeCUHuJ4-2" value="SSRS" style="rounded=1;whiteSpace=wrap;html=1;container=0;" vertex="1" parent="1">
          <mxGeometry x="335" y="323.26369863013696" width="120" height="38.73287671232877" as="geometry" />
        </mxCell>
        <mxCell id="LwUS36X5Wv06FeCUHuJ4-25" value="MS Access" style="rounded=1;whiteSpace=wrap;html=1;container=0;" vertex="1" parent="1">
          <mxGeometry x="335" y="406.68835616438355" width="120" height="38.73287671232877" as="geometry" />
        </mxCell>
        <mxCell id="LwUS36X5Wv06FeCUHuJ4-35" value="Target Enterprise Reporting Layer&lt;br&gt;&lt;br&gt;&lt;br&gt;&lt;br&gt;" style="rounded=0;whiteSpace=wrap;html=1;container=0;" vertex="1" parent="1">
          <mxGeometry x="280" y="164.85616438356163" width="230" height="99.31506849315069" as="geometry" />
        </mxCell>
        <mxCell id="LwUS36X5Wv06FeCUHuJ4-38" value="Azure Power BI" style="rounded=1;whiteSpace=wrap;html=1;container=0;" vertex="1" parent="1">
          <mxGeometry x="335" y="214.513698630137" width="120" height="38.73287671232877" as="geometry" />
        </mxCell>
        <mxCell id="LwUS36X5Wv06FeCUHuJ4-81" value="" style="group" vertex="1" connectable="0" parent="1">
          <mxGeometry x="-469.5" y="2" width="689.5" height="114.5" as="geometry" />
        </mxCell>
        <object label="Enterprise ETL Layer&lt;br&gt;&lt;br&gt;&lt;br&gt;&lt;br&gt;&lt;br&gt;&lt;br&gt;&lt;br&gt;" Name="ETL Layer" Info="There are multiple technologies which forms the ETL layer for the data platform. For Anixter, it is the SQL Stored Procedures as well as SSIS packages which are mostly used to perform ETL. Control-EM is used as a workflow scheduler." id="TrwFLLRDorfKgAdVW_bD-243">
          <mxCell style="rounded=0;whiteSpace=wrap;html=1;" parent="LwUS36X5Wv06FeCUHuJ4-81" vertex="1">
            <mxGeometry width="689.5" height="114.5" as="geometry" />
          </mxCell>
        </object>
        <mxCell id="LwUS36X5Wv06FeCUHuJ4-74" value="" style="group" vertex="1" connectable="0" parent="LwUS36X5Wv06FeCUHuJ4-81">
          <mxGeometry x="168.6546762589928" y="22" width="148.81294964028777" height="79" as="geometry" />
        </mxCell>
        <mxCell id="LwUS36X5Wv06FeCUHuJ4-70" value="Anixter ETL&lt;br&gt;&lt;br&gt;&lt;br&gt;&lt;br&gt;" style="rounded=0;whiteSpace=wrap;html=1;container=0;" vertex="1" parent="LwUS36X5Wv06FeCUHuJ4-74">
          <mxGeometry width="148.81294964028777" height="79" as="geometry" />
        </mxCell>
        <mxCell id="LwUS36X5Wv06FeCUHuJ4-71" value="SSIS" style="rounded=1;whiteSpace=wrap;html=1;container=0;" vertex="1" parent="LwUS36X5Wv06FeCUHuJ4-74">
          <mxGeometry x="9.922667102681489" y="30" width="48.702419882276" height="41" as="geometry" />
        </mxCell>
        <mxCell id="LwUS36X5Wv06FeCUHuJ4-72" value="SQL Stored Procedure" style="rounded=1;whiteSpace=wrap;html=1;container=0;" vertex="1" parent="LwUS36X5Wv06FeCUHuJ4-74">
          <mxGeometry x="69.44874885546108" y="30" width="72.24192282537607" height="41" as="geometry" />
        </mxCell>
        <mxCell id="LwUS36X5Wv06FeCUHuJ4-64" value="Workflow Orchestration&lt;br&gt;&lt;br&gt;&lt;br&gt;&lt;br&gt;" style="rounded=0;whiteSpace=wrap;html=1;container=0;" vertex="1" parent="LwUS36X5Wv06FeCUHuJ4-81">
          <mxGeometry x="11.905035971223022" y="22" width="148.81294964028777" height="79" as="geometry" />
        </mxCell>
        <mxCell id="LwUS36X5Wv06FeCUHuJ4-66" value="Control&lt;br&gt;EM jobs" style="rounded=1;whiteSpace=wrap;html=1;container=0;" vertex="1" parent="LwUS36X5Wv06FeCUHuJ4-81">
          <mxGeometry x="21.825899280575538" y="52" width="59.52517985611511" height="41" as="geometry" />
        </mxCell>
        <mxCell id="LwUS36X5Wv06FeCUHuJ4-67" value="Cron Jobs" style="rounded=1;whiteSpace=wrap;html=1;container=0;" vertex="1" parent="LwUS36X5Wv06FeCUHuJ4-81">
          <mxGeometry x="92.26402877697842" y="52" width="59.52517985611511" height="41" as="geometry" />
        </mxCell>
        <mxCell id="LwUS36X5Wv06FeCUHuJ4-75" value="" style="group" vertex="1" connectable="0" parent="LwUS36X5Wv06FeCUHuJ4-81">
          <mxGeometry x="323.42014388489207" y="21" width="168.6546762589928" height="79" as="geometry" />
        </mxCell>
        <mxCell id="LwUS36X5Wv06FeCUHuJ4-76" value="Wesco ETL&lt;br&gt;&lt;br&gt;&lt;br&gt;&lt;br&gt;" style="rounded=0;whiteSpace=wrap;html=1;container=0;" vertex="1" parent="LwUS36X5Wv06FeCUHuJ4-75">
          <mxGeometry x="0.9920863309352518" width="168.6546762589928" height="79" as="geometry" />
        </mxCell>
        <mxCell id="LwUS36X5Wv06FeCUHuJ4-77" value="Informatica" style="rounded=1;whiteSpace=wrap;html=1;container=0;" vertex="1" parent="LwUS36X5Wv06FeCUHuJ4-75">
          <mxGeometry x="9.920863309352518" y="30" width="69.44604316546763" height="41" as="geometry" />
        </mxCell>
        <mxCell id="LwUS36X5Wv06FeCUHuJ4-78" value="BTEQ Scripts" style="rounded=1;whiteSpace=wrap;html=1;container=0;" vertex="1" parent="LwUS36X5Wv06FeCUHuJ4-75">
          <mxGeometry x="89.29047547416612" y="29" width="72.24192282537607" height="41" as="geometry" />
        </mxCell>
        <mxCell id="LwUS36X5Wv06FeCUHuJ4-80" value="" style="group" vertex="1" connectable="0" parent="LwUS36X5Wv06FeCUHuJ4-81">
          <mxGeometry x="501.00359712230215" y="20" width="168.6546762589928" height="79" as="geometry" />
        </mxCell>
        <mxCell id="LwUS36X5Wv06FeCUHuJ4-79" value="Target&amp;nbsp; ETL&lt;br&gt;&lt;br&gt;&lt;br&gt;&lt;br&gt;" style="rounded=0;whiteSpace=wrap;html=1;container=0;" vertex="1" parent="LwUS36X5Wv06FeCUHuJ4-80">
          <mxGeometry width="168.6546762589928" height="79" as="geometry" />
        </mxCell>
        <mxCell id="TrwFLLRDorfKgAdVW_bD-247" value="ADF" style="rounded=1;whiteSpace=wrap;html=1;" parent="LwUS36X5Wv06FeCUHuJ4-80" vertex="1">
          <mxGeometry x="89.28776978417267" y="30" width="59.52517985611511" height="41" as="geometry" />
        </mxCell>
        <mxCell id="LwUS36X5Wv06FeCUHuJ4-63" value="Databricks" style="rounded=1;whiteSpace=wrap;html=1;" vertex="1" parent="LwUS36X5Wv06FeCUHuJ4-80">
          <mxGeometry x="9.920863309352518" y="30" width="69.44604316546763" height="41" as="geometry" />
        </mxCell>
        <mxCell id="LwUS36X5Wv06FeCUHuJ4-83" value="Windows Active Director" style="rounded=1;whiteSpace=wrap;html=1;container=0;" vertex="1" parent="1">
          <mxGeometry x="260" y="52.63369863013702" width="120" height="38.73287671232877" as="geometry" />
        </mxCell>
        <mxCell id="LwUS36X5Wv06FeCUHuJ4-84" value="RLS and CLS in Systems" style="rounded=1;whiteSpace=wrap;html=1;container=0;" vertex="1" parent="1">
          <mxGeometry x="400" y="52.63369863013702" width="120" height="38.73287671232877" as="geometry" />
        </mxCell>
      </root>
    </mxGraphModel>
  </diagram>
</mxfile>
